<svg xmlns="http://www.w3.org/2000/svg" xmlns:xlink="http://www.w3.org/1999/xlink" version="1.1" x="0px" y="0px" viewBox="0 0 32 40" enable-background="new 0 0 32 32" xml:space="preserve"><path d="M24.5,5h-17C6.673,5,6,5.673,6,6.5v4C6,11.327,6.673,12,7.5,12S9,11.327,9,10.5V8h5.5v16h-3c-0.827,0-1.5,0.673-1.5,1.5  s0.673,1.5,1.5,1.5h9c0.827,0,1.5-0.673,1.5-1.5S21.327,24,20.5,24h-3V8H23v2.5c0,0.827,0.673,1.5,1.5,1.5s1.5-0.673,1.5-1.5v-4  C26,5.673,25.327,5,24.5,5z"/><text x="0" y="47" fill="#000000" font-size="5px" font-weight="bold" font-family="'Helvetica Neue', Helvetica, Arial-Unicode, Arial, Sans-serif">Created by David Khai</text><text x="0" y="52" fill="#000000" font-size="5px" font-weight="bold" font-family="'Helvetica Neue', Helvetica, Arial-Unicode, Arial, Sans-serif">from the Noun Project</text></svg>