<svg xmlns="http://www.w3.org/2000/svg" xmlns:xlink="http://www.w3.org/1999/xlink" version="1.1" x="0px" y="0px" viewBox="0 0 72 90" enable-background="new 0 0 72 72" xml:space="preserve"><path fill="#000000" d="M52.7,0.5H42.5H29.5H19.3H1.4c-0.5,0-0.9,0.4-0.9,0.9v12.1v3.8c0,0.5,0.4,0.9,0.9,0.9h10.3  c0.4,0,0.7-0.2,0.9-0.6l1.4-3.6c0.1-0.4,0.5-0.6,0.9-0.6h13.7c0.5,0,0.9,0.4,0.9,0.9v56.1c0,0.5,0.4,0.9,0.9,0.9h11.2  c0.5,0,0.9-0.4,0.9-0.9V14.5c0-0.5,0.4-0.9,0.9-0.9h13.7c0.4,0,0.7,0.2,0.9,0.6l1.4,3.6c0.1,0.4,0.5,0.6,0.9,0.6h10.3  c0.5,0,0.9-0.4,0.9-0.9v-3.8V1.4c0-0.5-0.4-0.9-0.9-0.9H52.7z"/><text x="0" y="87" fill="#000000" font-size="5px" font-weight="bold" font-family="'Helvetica Neue', Helvetica, Arial-Unicode, Arial, Sans-serif">Created by Creative Stall</text><text x="0" y="92" fill="#000000" font-size="5px" font-weight="bold" font-family="'Helvetica Neue', Helvetica, Arial-Unicode, Arial, Sans-serif">from the Noun Project</text></svg>