<svg xmlns="http://www.w3.org/2000/svg" xmlns:xlink="http://www.w3.org/1999/xlink" version="1.1" x="0px" y="0px" viewBox="0 0 512 640" enable-background="new 0 0 512 512" xml:space="preserve"><path d="M256,2C115.7,2,2,115.7,2,256c0,140.3,113.7,254,254,254c140.3,0,254-113.7,254-254C510,115.7,396.3,2,256,2z M111,147  c-9.9-9.9-9.9-26,0-35.9c9.9-9.9,26-9.9,35.9,0l20.1,20.1l20.1-20.1c9.9-9.9,26-9.9,35.9,0c9.9,9.9,9.9,26,0,35.9L203,167.1  l20.1,20.1c9.9,9.9,10.7,26.9,0,35.9c-15.6,13.2-31,5-35.9,0L167.1,203L147,223.2c-15.2,14.8-31,5-35.9,0c-9.9-9.9-9.9-26,0-35.9  l20.1-20.1L111,147z M401.3,401c-9.7,10.1-25.8,10.4-35.9,0.6c-60.4-58.3-158.5-58.2-218.7,0c-10.1,9.7-26.2,9.5-35.9-0.6  c-9.8-10.1-9.5-26.2,0.6-35.9c39.9-38.5,92.3-57.7,144.7-57.7c52.4,0,104.8,19.2,144.6,57.7C410.7,374.8,411,390.9,401.3,401z   M401,187.2c9.9,9.9,9.9,26,0,35.9c-5,5-22,13.6-35.9,0L344.9,203l-20.1,20.1c-11.3,14.4-31,5-35.9,0c-9.9-9.9-9.9-26,0-35.9  l20.1-20.1L288.8,147c-9.9-9.9-9.9-26,0-35.9c9.9-9.9,26-9.9,35.9,0l20.1,20.1L365,111c9.9-9.9,26-9.9,35.9,0c9.9,9.9,9.9,26,0,35.9  l-20.1,20.1L401,187.2z"/><text x="0" y="527" fill="#000000" font-size="5px" font-weight="bold" font-family="'Helvetica Neue', Helvetica, Arial-Unicode, Arial, Sans-serif">Created by ProSymbols</text><text x="0" y="532" fill="#000000" font-size="5px" font-weight="bold" font-family="'Helvetica Neue', Helvetica, Arial-Unicode, Arial, Sans-serif">from the Noun Project</text></svg>