<svg xmlns="http://www.w3.org/2000/svg" xmlns:xlink="http://www.w3.org/1999/xlink" version="1.1" x="0px" y="0px" viewBox="0 0 512 640" enable-background="new 0 0 512 512" xml:space="preserve"><g><path d="M433.8,52.8H332.2c0-9.5,0-19.5,0-25.4c0-14-11.4-25.4-25.4-25.4H205.2c-14,0-25.4,11.4-25.4,25.4c0,5.9,0,15.9,0,25.4   H78.2c-14,0-25.4,11.4-25.4,25.4c0,14,11.4,25.4,25.4,25.4h355.6c14,0,25.4-11.4,25.4-25.4C459.2,64.2,447.8,52.8,433.8,52.8z"/><path d="M103.6,484.6c0,14,11.4,25.4,25.4,25.4h254c14,0,25.4-11.4,25.4-25.4v-320c0-5.6-4.5-10.2-10.2-10.2H113.8   c-5.6,0-10.2,4.5-10.2,10.2V484.6z M281.4,230.6c0-14,11.4-25.4,25.4-25.4c14,0,25.4,11.4,25.4,25.4v203.2   c0,14-11.4,25.4-25.4,25.4c-14,0-25.4-11.4-25.4-25.4V230.6z M179.8,230.6c0-14,11.4-25.4,25.4-25.4c14,0,25.4,11.4,25.4,25.4   v203.2c0,14-11.4,25.4-25.4,25.4c-14,0-25.4-11.4-25.4-25.4V230.6z"/></g><text x="0" y="527" fill="#000000" font-size="5px" font-weight="bold" font-family="'Helvetica Neue', Helvetica, Arial-Unicode, Arial, Sans-serif">Created by ProSymbols</text><text x="0" y="532" fill="#000000" font-size="5px" font-weight="bold" font-family="'Helvetica Neue', Helvetica, Arial-Unicode, Arial, Sans-serif">from the Noun Project</text></svg>