<svg xmlns="http://www.w3.org/2000/svg" xmlns:xlink="http://www.w3.org/1999/xlink" version="1.1" x="0px" y="0px" viewBox="0 0 512 640" enable-background="new 0 0 512 512" xml:space="preserve"><path d="M484.6,2H27.4C13.4,2,2,13.4,2,27.4v457.2c0,14,11.4,25.4,25.4,25.4h457.2c14,0,25.4-11.4,25.4-25.4V27.4  C510,13.4,498.6,2,484.6,2z M331.2,271.1l-64,131c-4.2,8.6-18.2,8.6-22.4,0l-64-131c-4.8-9.8,7.9-19,17.9-13.1l31.8,18.6V129  c0-14,11.4-25.4,25.4-25.4c14,0,25.4,11.4,25.4,25.4v147.6l31.8-18.6C323.3,252.1,335.9,261.3,331.2,271.1z"/><text x="0" y="527" fill="#000000" font-size="5px" font-weight="bold" font-family="'Helvetica Neue', Helvetica, Arial-Unicode, Arial, Sans-serif">Created by ProSymbols</text><text x="0" y="532" fill="#000000" font-size="5px" font-weight="bold" font-family="'Helvetica Neue', Helvetica, Arial-Unicode, Arial, Sans-serif">from the Noun Project</text></svg>