<svg xmlns="http://www.w3.org/2000/svg" xmlns:xlink="http://www.w3.org/1999/xlink" version="1.1" x="0px" y="0px" viewBox="0 0 512 640" enable-background="new 0 0 512 512" xml:space="preserve"><g><path d="M248.6,303.3c3.5,4.7,11.3,4.7,14.9,0l117.2-136.6c4-5.3-0.3-12.3-7.4-12.3h-59.6c-3.5,0-6.3-2.7-6.3-6.1V8.1   c0-3.4-2.8-6.1-6.3-6.1h-89.4c-3.5,0-6.3,2.7-6.3,6.1v140.2c0,3.4-2.8,6.1-6.3,6.1h-60.1c-7.1,0-11.4,7-7.4,12.3L248.6,303.3z"/><path d="M499.8,306.8h-81.3c-5.6,0-10.2,4.5-10.2,10.2v81.3c0,5.6-4.5,10.2-10.2,10.2H113.8c-5.6,0-10.2-4.5-10.2-10.2V317   c0-5.6-4.5-10.2-10.2-10.2H12.2C6.5,306.8,2,311.3,2,317v142.2C2,487.3,24.7,510,52.8,510h406.4c28.1,0,50.8-22.7,50.8-50.8V317   C510,311.3,505.4,306.8,499.8,306.8z"/></g><text x="0" y="527" fill="#000000" font-size="5px" font-weight="bold" font-family="'Helvetica Neue', Helvetica, Arial-Unicode, Arial, Sans-serif">Created by ProSymbols</text><text x="0" y="532" fill="#000000" font-size="5px" font-weight="bold" font-family="'Helvetica Neue', Helvetica, Arial-Unicode, Arial, Sans-serif">from the Noun Project</text></svg>