<svg xmlns="http://www.w3.org/2000/svg" xmlns:xlink="http://www.w3.org/1999/xlink" version="1.1" x="0px" y="0px" viewBox="0 0 512 640" enable-background="new 0 0 512 512" xml:space="preserve"><g><path d="M504.8,419.1l-106-106c-6.9-6.9-18.1-6.9-25,0l-35,35c-10,10-25.4,14.9-38.4,9.3c-74.6-32.1-115-72.3-145.9-145.7   c-5.4-12.9-0.4-28.2,9.5-38.1l35.2-35.2c6.9-6.9,6.9-18.1,0-25l-106-106c-6.9-6.9-18.1-6.9-25,0L27.9,47.7   C3.7,71.9-4.2,108,7.1,140.2c62.2,178,183.8,299.4,364.6,364.2c32.4,11.6,68.9,3.8,93.2-20.5l39.9-39.9   C511.7,437.1,511.7,426,504.8,419.1z"/><path d="M305.5,230.6c6.5,0,13-2.5,17.9-7.4l108.9-108.9v40.2c0,14,11.4,25.4,25.4,25.4c14,0,25.4-11.4,25.4-25.4V53   c0-14-11.4-25.4-25.4-25.4H356.3c-14,0-25.4,11.4-25.4,25.4c0,14,11.4,25.4,25.4,25.4h40.2L287.6,187.3c-9.9,9.9-9.9,26,0,35.9   C292.6,228.1,299.1,230.6,305.5,230.6z"/></g><text x="0" y="527" fill="#000000" font-size="5px" font-weight="bold" font-family="'Helvetica Neue', Helvetica, Arial-Unicode, Arial, Sans-serif">Created by ProSymbols</text><text x="0" y="532" fill="#000000" font-size="5px" font-weight="bold" font-family="'Helvetica Neue', Helvetica, Arial-Unicode, Arial, Sans-serif">from the Noun Project</text></svg>