<svg xmlns="http://www.w3.org/2000/svg" xmlns:xlink="http://www.w3.org/1999/xlink" version="1.1" x="0px" y="0px" viewBox="0 0 512 640" enable-background="new 0 0 512 512" xml:space="preserve"><g><path d="M506.9,96.1l-80.4-91c-6.7-6.6-18.1-1.9-18.1,7.5v40.2c-98.2,0-177.8,79.6-177.8,177.8c0,17.7,2.7,34.7,7.5,50.8   c21.9-73.4,89.8-127,170.3-127v40.2c0,9.4,11.4,14.1,18.1,7.5l80.4-91C511,106.9,511,100.2,506.9,96.1z"/><path d="M474.4,256H444c-5.6,0-10.2,4.5-10.2,10.2v193h-381v-381h193c5.6,0,10.2-4.5,10.2-10.2V37.6c0-5.6-4.5-10.2-10.2-10.2H27.4   C13.4,27.4,2,38.8,2,52.8v431.8c0,14,11.4,25.4,25.4,25.4h431.8c14,0,25.4-11.4,25.4-25.4V266.2C484.6,260.5,480.1,256,474.4,256z"/></g><text x="0" y="527" fill="#000000" font-size="5px" font-weight="bold" font-family="'Helvetica Neue', Helvetica, Arial-Unicode, Arial, Sans-serif">Created by ProSymbols</text><text x="0" y="532" fill="#000000" font-size="5px" font-weight="bold" font-family="'Helvetica Neue', Helvetica, Arial-Unicode, Arial, Sans-serif">from the Noun Project</text></svg>