<svg xmlns="http://www.w3.org/2000/svg" xmlns:xlink="http://www.w3.org/1999/xlink" version="1.1" x="0px" y="0px" viewBox="0 0 512 640" enable-background="new 0 0 512 512" xml:space="preserve"><g><path d="M286.4,269.7c7.4,11.9,22.4,15.2,33.5,7.2l52.3-37.5c6.7-4.8,10.7-12.9,10.7-21.6c0-8.7-4-16.8-10.7-21.6l-52.3-37.5   c-11.1-8-26.1-4.7-33.5,7.2c-7.4,11.9-4.4,28.1,6.7,36l22.2,15.9l-22.2,15.9C282,241.6,279,257.8,286.4,269.7z"/><path d="M139.9,239.4l52.9,37.5c11.2,8,26.4,4.7,33.9-7.2c7.5-11.9,4.4-28.1-6.8-36l-22.5-15.9l22.5-15.9c11.2-8,14.2-24.1,6.8-36   c-7.5-11.9-22.6-15.2-33.9-7.2l-52.9,37.5c-6.8,4.8-10.9,12.9-10.9,21.6C129,226.5,133.1,234.6,139.9,239.4z"/><path d="M509.5,445.8c0,0-47.8-111.1-50.3-112.3V78.2c0-14-11.4-25.4-25.4-25.4H78.2c-14,0-25.4,11.4-25.4,25.4v255.3   c-2.5,1.2-50.3,112.3-50.3,112.3c-2.2,6.6,2.7,13.4,9.8,13.4h487.3C506.7,459.2,511.7,452.4,509.5,445.8z M408.4,332.2H103.6V103.6   h304.8V332.2z"/></g><text x="0" y="527" fill="#000000" font-size="5px" font-weight="bold" font-family="'Helvetica Neue', Helvetica, Arial-Unicode, Arial, Sans-serif">Created by ProSymbols</text><text x="0" y="532" fill="#000000" font-size="5px" font-weight="bold" font-family="'Helvetica Neue', Helvetica, Arial-Unicode, Arial, Sans-serif">from the Noun Project</text></svg>