<svg xmlns="http://www.w3.org/2000/svg" xmlns:xlink="http://www.w3.org/1999/xlink" version="1.1" x="0px" y="0px" viewBox="0 0 512 640" enable-background="new 0 0 512 512" xml:space="preserve"><g><path d="M154.4,357.6c14,0,25.4,11.4,25.4,25.4v76.2h279.4V52.8H179.8V129c0,14-11.4,25.4-25.4,25.4c-14,0-25.4-11.4-25.4-25.4   V27.4c0-14,11.4-25.4,25.4-25.4h330.2c14,0,25.4,11.4,25.4,25.4v457.2c0,14-11.4,25.4-25.4,25.4H154.4c-14,0-25.4-11.4-25.4-25.4   V383C129,369,140.4,357.6,154.4,357.6z"/><path d="M12.2,205.2h218.4v-36.5c0-12.7,15.4-19.1,24.5-10.1l72.9,87c5.6,5.6,5.6,14.6,0,20.2l-72.9,87.5c-9,9-24.5,2.6-24.5-10.1   v-36.5H12.2c-5.6,0-10.2-4.5-10.2-10.2v-81.3C2,209.7,6.5,205.2,12.2,205.2z"/></g><text x="0" y="527" fill="#000000" font-size="5px" font-weight="bold" font-family="'Helvetica Neue', Helvetica, Arial-Unicode, Arial, Sans-serif">Created by ProSymbols</text><text x="0" y="532" fill="#000000" font-size="5px" font-weight="bold" font-family="'Helvetica Neue', Helvetica, Arial-Unicode, Arial, Sans-serif">from the Noun Project</text></svg>