<svg xmlns="http://www.w3.org/2000/svg" xmlns:xlink="http://www.w3.org/1999/xlink" version="1.1" x="0px" y="0px" viewBox="0 0 512 640" enable-background="new 0 0 512 512" xml:space="preserve"><g><path d="M88.7,408.4h334.5c7.8-1.5,12.9-9.9,9.4-17l-63.6-129.2c-3.5-7.2-13.3-8-17.9-1.5l-59.8,83.9c-4.3,6.1-13.3,5.8-17.4-0.4   L187,208.6c-4.4-6.9-14.6-6.3-18.2,1.1L79.3,391.4C75.8,398.5,80.9,406.9,88.7,408.4z"/><circle cx="306.1" cy="153.7" r="50.1"/><path d="M484.6,2H27.4C13.4,2,2,13.4,2,27.4v457.2c0,14,11.4,25.4,25.4,25.4h457.2c14,0,25.4-11.4,25.4-25.4V27.4   C510,13.4,498.6,2,484.6,2z M459.2,459.2H52.8V52.8h406.4V459.2z"/></g><text x="0" y="527" fill="#000000" font-size="5px" font-weight="bold" font-family="'Helvetica Neue', Helvetica, Arial-Unicode, Arial, Sans-serif">Created by ProSymbols</text><text x="0" y="532" fill="#000000" font-size="5px" font-weight="bold" font-family="'Helvetica Neue', Helvetica, Arial-Unicode, Arial, Sans-serif">from the Noun Project</text></svg>