<svg xmlns="http://www.w3.org/2000/svg" xmlns:xlink="http://www.w3.org/1999/xlink" version="1.1" x="0px" y="0px" viewBox="0 0 512 640" enable-background="new 0 0 512 512" xml:space="preserve"><g><path d="M359.3,332.7c-6.2-6.2-16.3-6.2-22.5,0l-31.5,31.5c-9,9-22.9,13.5-34.6,8.4c-67.2-28.9-103.5-65.1-131.3-131.2   c-4.9-11.6-0.4-25.4,8.5-34.3l31.7-31.7c6.2-6.2,6.2-16.3,0-22.5L84.1,57.5c-6.2-6.2-16.3-6.2-22.5,0L25.3,93.8   C3.5,115.6-3.6,148.1,6.6,177.2c56,160.2,165.5,269.5,328.3,328c29.2,10.5,62,3.5,84-18.5l35.9-35.9c6.2-6.2,6.2-16.3,0-22.5   L359.3,332.7z"/><path d="M358.8,234.4c1.4,13.3,13.4,22.8,26.6,21.4c13.3-1.4,22.9-13.4,21.4-26.6c-6.8-62.7-61.3-117.2-124-124   c-13.3-1.4-25.2,8.2-26.6,21.4c-0.8,7.6,1,24.5,21.4,26.6C317.4,157.4,354.5,194.7,358.8,234.4z"/><path d="M282.9,2.2c-13.3-1.4-25.2,8.2-26.6,21.4c-1.4,13.3,8.2,25.2,21.4,26.6c91.6,9.9,170.4,93,184.1,184.1   c3.7,24.7,19.1,22.2,26.6,21.4c13.3-1.4,22.9-13.4,21.4-26.6C497.6,116.3,395.8,14.5,282.9,2.2z"/></g><text x="0" y="527" fill="#000000" font-size="5px" font-weight="bold" font-family="'Helvetica Neue', Helvetica, Arial-Unicode, Arial, Sans-serif">Created by ProSymbols</text><text x="0" y="532" fill="#000000" font-size="5px" font-weight="bold" font-family="'Helvetica Neue', Helvetica, Arial-Unicode, Arial, Sans-serif">from the Noun Project</text></svg>