<svg xmlns="http://www.w3.org/2000/svg" xmlns:xlink="http://www.w3.org/1999/xlink" version="1.1" x="0px" y="0px" viewBox="0 0 512 640" enable-background="new 0 0 512 512" xml:space="preserve"><g><path d="M503.1,228.3L454.3,212c-5.2-23.5-14.5-45.3-27-65l23.1-46.1c2-3.9,1.2-8.6-1.9-11.7l-25.6-25.6c-3.1-3.1-7.8-3.9-11.7-1.9   L365,84.8c-19.7-12.6-41.5-21.8-65-27L283.7,8.9c-1.4-4.1-5.3-6.9-9.6-6.9h-36.2c-4.4,0-8.3,2.8-9.6,6.9L212,57.7   c-23.5,5.2-45.3,14.5-65,27.1l-46.1-23.1c-3.9-2-8.6-1.2-11.7,1.9L63.6,89.2c-3.1,3.1-3.9,7.8-1.9,11.7L84.8,147   c-12.5,19.7-21.8,41.5-27,65L8.9,228.3c-4.1,1.4-6.9,5.3-6.9,9.6v36.2c0,4.4,2.8,8.3,6.9,9.6L57.7,300c5.2,23.4,14.5,45.3,27,65   l-23.1,46.1c-2,3.9-1.2,8.6,1.9,11.7l25.6,25.6c3.1,3.1,7.8,3.9,11.7,1.9l46.1-23.1c19.6,12.6,41.5,21.8,65,27l16.3,48.8   c1.4,4.1,5.3,6.9,9.6,6.9h36.2c4.4,0,8.3-2.8,9.6-6.9l16.3-48.8c23.5-5.2,45.3-14.5,65-27l46.1,23.1c3.9,2,8.6,1.2,11.7-1.9   l25.6-25.6c3.1-3.1,3.9-7.8,1.9-11.7L427.2,365c12.6-19.7,21.8-41.5,27-65l48.8-16.3c4.2-1.4,6.9-5.3,6.9-9.6v-36.2   C510,233.5,507.2,229.7,503.1,228.3z M256,408.4c-84,0-152.4-68.4-152.4-152.4S172,103.6,256,103.6c84,0,152.4,68.4,152.4,152.4   S340,408.4,256,408.4z"/><path d="M256,179.8c-42.1,0-76.2,34.1-76.2,76.2c0,42.1,34.1,76.2,76.2,76.2c42.1,0,76.2-34.1,76.2-76.2   C332.2,213.9,298.1,179.8,256,179.8z"/></g><text x="0" y="527" fill="#000000" font-size="5px" font-weight="bold" font-family="'Helvetica Neue', Helvetica, Arial-Unicode, Arial, Sans-serif">Created by ProSymbols</text><text x="0" y="532" fill="#000000" font-size="5px" font-weight="bold" font-family="'Helvetica Neue', Helvetica, Arial-Unicode, Arial, Sans-serif">from the Noun Project</text></svg>