<svg xmlns="http://www.w3.org/2000/svg" xmlns:xlink="http://www.w3.org/1999/xlink" version="1.1" x="0px" y="0px" viewBox="0 0 512 640" enable-background="new 0 0 512 512" xml:space="preserve"><path d="M459.2,52.8h-50.8V27.4C408.4,13.4,397,2,383,2H27.4C13.4,2,2,13.4,2,27.4V129c0,14,11.4,25.4,25.4,25.4H383  c14,0,25.4-11.4,25.4-25.4v-25.4h50.8v82.2l-260.7,71.1c-11.1,3-18.7,13-18.7,24.5v50.8h-15.2c-5.6,0-10.2,4.5-10.2,10.2v157.5  c0,5.6,4.5,10.2,10.2,10.2h81.3c5.6,0,10.2-4.5,10.2-10.2V342.4c0-5.6-4.5-10.2-10.2-10.2h-15.2v-31.4l242-66  c22-6,37.4-26.2,37.4-49v-82.2C510,75.6,487.2,52.8,459.2,52.8z"/><text x="0" y="527" fill="#000000" font-size="5px" font-weight="bold" font-family="'Helvetica Neue', Helvetica, Arial-Unicode, Arial, Sans-serif">Created by ProSymbols</text><text x="0" y="532" fill="#000000" font-size="5px" font-weight="bold" font-family="'Helvetica Neue', Helvetica, Arial-Unicode, Arial, Sans-serif">from the Noun Project</text></svg>