<svg xmlns="http://www.w3.org/2000/svg" xmlns:xlink="http://www.w3.org/1999/xlink" version="1.1" x="0px" y="0px" viewBox="0 0 512 640" enable-background="new 0 0 512 512" xml:space="preserve"><path d="M509.8,484.4V27.6c0-14-11.4-25.4-25.4-25.4H27.6c-14,0-25.4,11.4-25.4,25.4v456.8c0,14,11.4,25.4,25.4,25.4h456.8  C498.4,509.8,509.8,498.4,509.8,484.4z M313.2,254l-31.8-18.6v147.5c0,14-11.4,25.4-25.4,25.4c-14,0-25.4-11.4-25.4-25.4V235.4  L198.8,254c-10.1,5.9-22.7-3.3-17.9-13.1L244.8,110c4.2-8.6,18.1-8.6,22.4,0l63.9,130.9C335.9,250.7,323.2,259.9,313.2,254z"/><text x="0" y="527" fill="#000000" font-size="5px" font-weight="bold" font-family="'Helvetica Neue', Helvetica, Arial-Unicode, Arial, Sans-serif">Created by ProSymbols</text><text x="0" y="532" fill="#000000" font-size="5px" font-weight="bold" font-family="'Helvetica Neue', Helvetica, Arial-Unicode, Arial, Sans-serif">from the Noun Project</text></svg>