<svg xmlns="http://www.w3.org/2000/svg" xmlns:xlink="http://www.w3.org/1999/xlink" version="1.1" x="0px" y="0px" viewBox="0 0 512 640" enable-background="new 0 0 512 512" xml:space="preserve"><path d="M451.8,121.6L339.6,9.4c-4.8-4.8-11.2-7.4-18-7.4H78.2c-14,0-25.4,11.4-25.4,25.4v457.2c0,14,11.4,25.4,25.4,25.4h355.6  c14,0,25.4-11.4,25.4-25.4V139.5C459.2,132.8,456.5,126.3,451.8,121.6z M383,459.2H129c-14,0-25.4-11.4-25.4-25.4  c0-14,11.4-25.4,25.4-25.4h254c14,0,25.4,11.4,25.4,25.4C408.4,447.8,397,459.2,383,459.2z M383,357.6H129  c-14,0-25.4-11.4-25.4-25.4c0-14,11.4-25.4,25.4-25.4h254c14,0,25.4,11.4,25.4,25.4C408.4,346.2,397,357.6,383,357.6z M383,256H129  c-14,0-25.4-11.4-25.4-25.4c0-14,11.4-25.4,25.4-25.4h254c14,0,25.4,11.4,25.4,25.4C408.4,244.6,397,256,383,256z M409.3,154.4H317  c-5.6,0-10.2-4.5-10.2-10.2V51.9c0-9.1,10.9-13.6,17.3-7.2l92.3,92.3C422.9,143.5,418.3,154.4,409.3,154.4z"/><text x="0" y="527" fill="#000000" font-size="5px" font-weight="bold" font-family="'Helvetica Neue', Helvetica, Arial-Unicode, Arial, Sans-serif">Created by ProSymbols</text><text x="0" y="532" fill="#000000" font-size="5px" font-weight="bold" font-family="'Helvetica Neue', Helvetica, Arial-Unicode, Arial, Sans-serif">from the Noun Project</text></svg>