<svg xmlns="http://www.w3.org/2000/svg" xmlns:xlink="http://www.w3.org/1999/xlink" version="1.1" x="0px" y="0px" viewBox="0 0 512 640" enable-background="new 0 0 512 512" xml:space="preserve"><g><path d="M502.6,81.3L430.7,9.4c-9.9-9.9-26-9.9-35.9,0L159.5,244.8c-3.3,3.3-5.6,7.5-6.7,12L129.3,354c-2.4,16.8,12,31.1,28.7,28.7   l97.2-23.5c4.5-1.1,8.7-3.4,12-6.7l235.3-235.3C512.5,107.3,512.5,91.2,502.6,81.3z"/><path d="M450.5,241.1l-40.6,40.6c-1,1-1.5,2.2-1.5,3.6v173.9H52.8V103.6h173.9c1.3,0,2.6-0.5,3.6-1.5l40.6-40.6   c3.2-3.2,0.9-8.7-3.6-8.7H27.4C13.4,52.8,2,64.2,2,78.2v406.4c0,14,11.4,25.4,25.4,25.4h406.4c14,0,25.4-11.4,25.4-25.4V244.7   C459.2,240.2,453.7,237.9,450.5,241.1z"/></g><text x="0" y="527" fill="#000000" font-size="5px" font-weight="bold" font-family="'Helvetica Neue', Helvetica, Arial-Unicode, Arial, Sans-serif">Created by ProSymbols</text><text x="0" y="532" fill="#000000" font-size="5px" font-weight="bold" font-family="'Helvetica Neue', Helvetica, Arial-Unicode, Arial, Sans-serif">from the Noun Project</text></svg>