<svg xmlns="http://www.w3.org/2000/svg" xmlns:xlink="http://www.w3.org/1999/xlink" version="1.1" x="0px" y="0px" viewBox="0 0 512 640" enable-background="new 0 0 512 512" xml:space="preserve"><g><path d="M497.3,416.2L388.8,280.4c-3.3-4.1-3-10.1,0.8-13.8L449,207c4.1-4.1,4.1-10.6,0-14.7l-58.7-58.8c-4.1-4.1-10.6-4.1-14.7,0   L133.5,376c-4.1,4.1-4.1,10.6,0,14.7l58.7,58.8c4.1,4.1,10.6,4.1,14.7,0l59.5-59.5c3.7-3.7,9.7-4.1,13.8-0.8l133.3,106.7   c20.6,16.5,50.2,19.5,71.7,4.3C513.2,480.3,517.9,441.9,497.3,416.2z M451.8,451.8c-9.9,9.9-26,9.9-35.9,0c-9.9-9.9-9.9-26,0-35.9   c9.9-9.9,26-9.9,35.9,0C461.7,425.8,461.7,441.8,451.8,451.8z"/><path d="M338.9,82.2L261.9,5C257.8,1,251.2,1,247.2,5l-24.8,24.8c-2.8,2.8-3.7,6.9-2.5,10.6l18.8,38.4c2.7,8.1-5,15.8-13.1,13.1   l-38.3-18.8c-3.7-1.2-7.8-0.3-10.6,2.5l-63.6,63.6c-3.2,3.2-3.9,8-1.9,12l16.9,36.4c4.5,8.9-5,18.4-13.9,13.9l-36.4-17   c-4-2-8.8-1.2-12,1.9L5,247.4C1,251.5,1,258.1,5,262.1l77.1,77.1c4.1,4.1,10.6,4.1,14.7,0L338.9,96.9C343,92.8,343,86.2,338.9,82.2   z"/></g><text x="0" y="527" fill="#000000" font-size="5px" font-weight="bold" font-family="'Helvetica Neue', Helvetica, Arial-Unicode, Arial, Sans-serif">Created by ProSymbols</text><text x="0" y="532" fill="#000000" font-size="5px" font-weight="bold" font-family="'Helvetica Neue', Helvetica, Arial-Unicode, Arial, Sans-serif">from the Noun Project</text></svg>