<svg xmlns="http://www.w3.org/2000/svg" xmlns:xlink="http://www.w3.org/1999/xlink" version="1.1" x="0px" y="0px" viewBox="0 0 512 640" enable-background="new 0 0 512 512" xml:space="preserve"><g><path d="M476.6,100c2,2,5.2,2,7.2,0l18.8-18.8c9.9-9.9,9.9-25.8,0-35.7l-36-36c-9.9-9.9-26-9.9-35.9,0l-18.7,18.7c-2,2-2,5.2,0,7.2   L476.6,100z"/><path d="M230.5,269.4c-1.4,7.1,4.9,13.3,12,12l74.4-20.5c4.9-1,9.4-3.4,12.9-6.9l110.9-110.9c2-2,2-5.2,0-7.2L376,71.2   c-2-2-5.2-2-7.2,0L257.9,182.2c-3.5,3.5-5.9,8-6.9,12.9L230.5,269.4z"/><path d="M484.6,256.2c-14,0-25.4,11.4-25.4,25.4v177.6H52.8V52.8h177.5c14,0,25.4-11.4,25.4-25.4c0-14-11.4-25.4-25.4-25.4H52.8   C24.8,2,2,24.8,2,52.8v406.4c0,28,22.8,50.8,50.8,50.8h406.4c28,0,50.8-22.8,50.8-50.8V281.6C510,267.5,498.6,256.2,484.6,256.2z"/></g><text x="0" y="527" fill="#000000" font-size="5px" font-weight="bold" font-family="'Helvetica Neue', Helvetica, Arial-Unicode, Arial, Sans-serif">Created by ProSymbols</text><text x="0" y="532" fill="#000000" font-size="5px" font-weight="bold" font-family="'Helvetica Neue', Helvetica, Arial-Unicode, Arial, Sans-serif">from the Noun Project</text></svg>