<svg xmlns="http://www.w3.org/2000/svg" xmlns:xlink="http://www.w3.org/1999/xlink" version="1.1" x="0px" y="0px" viewBox="0 0 512 640" enable-background="new 0 0 512 512" xml:space="preserve"><path d="M433.8,357.6c-20.5,0-39.1,8.2-52.8,21.4L153.5,265.2c0.4-3.1,0.9-6.1,0.9-9.2c0-3.2-0.6-6.2-0.9-9.2L381,133  c13.7,13.2,32.3,21.4,52.8,21.4c42.1,0,76.2-34.1,76.2-76.2C510,36.1,475.9,2,433.8,2s-76.2,34.1-76.2,76.2c0,3.2,0.6,6.2,0.9,9.2  L131,201.2c-13.7-13.2-32.3-21.4-52.8-21.4C36.1,179.8,2,213.9,2,256c0,42.1,34.1,76.2,76.2,76.2c20.5,0,39.1-8.2,52.8-21.4  l227.5,113.8c-0.4,3.1-0.9,6.1-0.9,9.2c0,42.1,34.1,76.2,76.2,76.2s76.2-34.1,76.2-76.2C510,391.7,475.9,357.6,433.8,357.6z"/><text x="0" y="527" fill="#000000" font-size="5px" font-weight="bold" font-family="'Helvetica Neue', Helvetica, Arial-Unicode, Arial, Sans-serif">Created by ProSymbols</text><text x="0" y="532" fill="#000000" font-size="5px" font-weight="bold" font-family="'Helvetica Neue', Helvetica, Arial-Unicode, Arial, Sans-serif">from the Noun Project</text></svg>