<svg xmlns="http://www.w3.org/2000/svg" xmlns:xlink="http://www.w3.org/1999/xlink" version="1.1" x="0px" y="0px" viewBox="0 0 512 640" enable-background="new 0 0 512 512" xml:space="preserve"><g><path d="M77,341.6c-4-4-10.4-4-14.4,0L29.2,375c-0.9,1.7-1.8,3.4-2.8,5.1L2.2,497.9c-1.3,7,4.8,13.2,11.9,11.9l117.8-24.3   c1.7-0.9,3.4-1.8,5.1-2.8l33.4-33.4c4-4,4-10.4,0-14.4L77,341.6z"/><path d="M318.3,100.3c-4-4-10.4-4-14.4,0l-191,191c-4,4-4,10.4,0,14.4l93.4,93.4c4,4,10.4,4,14.4,0l191-191c4-4,4-10.4,0-14.4   L318.3,100.3z"/><path d="M507,98.4L413.6,5c-4-4-10.4-4-14.4,0l-45,45c-4,4-4,10.4,0,14.4l93.4,93.4c4,4,10.4,4,14.4,0l45-45   C511,108.8,511,102.3,507,98.4z"/></g><text x="0" y="527" fill="#000000" font-size="5px" font-weight="bold" font-family="'Helvetica Neue', Helvetica, Arial-Unicode, Arial, Sans-serif">Created by ProSymbols</text><text x="0" y="532" fill="#000000" font-size="5px" font-weight="bold" font-family="'Helvetica Neue', Helvetica, Arial-Unicode, Arial, Sans-serif">from the Noun Project</text></svg>