<svg xmlns="http://www.w3.org/2000/svg" xmlns:xlink="http://www.w3.org/1999/xlink" version="1.1" x="0px" y="0px" viewBox="0 0 512 640" enable-background="new 0 0 512 512" xml:space="preserve"><g><path d="M256,2C157.8,2,78.2,81.6,78.2,179.8c0,85.5,134.9,279.2,169.7,326.1c4.1,5.5,12.2,5.5,16.2,0   c34.8-46.9,169.7-240.6,169.7-326.1C433.8,81.6,354.2,2,256,2z M256,306.8c-70.1,0-127-56.9-127-127s56.9-127,127-127   s127,56.9,127,127S326.1,306.8,256,306.8z"/><path d="M256,103.6c-42,0-76.2,34.2-76.2,76.2S214,256,256,256s76.2-34.2,76.2-76.2S298,103.6,256,103.6z"/></g><text x="0" y="527" fill="#000000" font-size="5px" font-weight="bold" font-family="'Helvetica Neue', Helvetica, Arial-Unicode, Arial, Sans-serif">Created by ProSymbols</text><text x="0" y="532" fill="#000000" font-size="5px" font-weight="bold" font-family="'Helvetica Neue', Helvetica, Arial-Unicode, Arial, Sans-serif">from the Noun Project</text></svg>