<svg xmlns="http://www.w3.org/2000/svg" xmlns:xlink="http://www.w3.org/1999/xlink" version="1.1" x="0px" y="0px" viewBox="0 0 512 640" enable-background="new 0 0 512 512" xml:space="preserve"><g><path d="M121.6,326.6c-10.7,3.1-18,13.3-18,24.4v52.3c0,2.8,2.3,5.1,5.1,5.1h294.6c2.8,0,5.1-2.3,5.1-5.1V351   c0-11.2-7.3-21.3-18-24.4C300.8,300.2,211.2,300.2,121.6,326.6z"/><path d="M256,256c42.1,0,76.2-34.1,76.2-76.2c0-42.1-34.1-76.2-76.2-76.2c-42.1,0-76.2,34.1-76.2,76.2   C179.8,221.9,213.9,256,256,256z"/><path d="M12.2,129h30.5c5.6,0,10.2-4.5,10.2-10.2V52.8h66c5.6,0,10.2-4.5,10.2-10.2V12.2C129,6.5,124.5,2,118.9,2H27.4   C13.4,2,2,13.4,2,27.4v91.5C2,124.5,6.6,129,12.2,129z"/><path d="M484.6,2h-91.4C387.5,2,383,6.5,383,12.2v30.5c0,5.6,4.5,10.2,10.2,10.2h66v66.1c0,5.6,4.5,10.2,10.2,10.2h30.5   c5.6,0,10.2-4.5,10.2-10.2V27.4C510,13.4,498.6,2,484.6,2z"/><path d="M118.9,459.2h-66v-66.1c0-5.6-4.5-10.2-10.2-10.2H12.2C6.6,383,2,387.5,2,393.1v91.5c0,14,11.4,25.4,25.4,25.4h91.4   c5.6,0,10.2-4.5,10.2-10.2v-30.5C129,463.8,124.5,459.2,118.9,459.2z"/><path d="M499.8,383h-30.5c-5.6,0-10.2,4.5-10.2,10.2v66.1h-66c-5.6,0-10.2,4.5-10.2,10.2v30.5c0,5.6,4.5,10.2,10.2,10.2h91.4   c14,0,25.4-11.4,25.4-25.4v-91.5C510,387.5,505.4,383,499.8,383z"/></g><text x="0" y="527" fill="#000000" font-size="5px" font-weight="bold" font-family="'Helvetica Neue', Helvetica, Arial-Unicode, Arial, Sans-serif">Created by ProSymbols</text><text x="0" y="532" fill="#000000" font-size="5px" font-weight="bold" font-family="'Helvetica Neue', Helvetica, Arial-Unicode, Arial, Sans-serif">from the Noun Project</text></svg>