<svg xmlns="http://www.w3.org/2000/svg" xmlns:xlink="http://www.w3.org/1999/xlink" version="1.1" x="0px" y="0px" viewBox="0 0 512 640" enable-background="new 0 0 512 512" xml:space="preserve"><g><path d="M243.1,403.1c7,7,18.3,7,25.3,0L377.7,312c11.3-11.3,3.3-30.6-12.6-30.6h-32.9V12.2C332.2,6.5,327.6,2,322,2H190   c-5.6,0-10.2,4.5-10.2,10.2v269.2h-32.9c-15.9,0-23.9,19.3-12.6,30.6L243.1,403.1z"/><path d="M484.6,459.2H27.4c-14,0-25.4,11.4-25.4,25.4c0,14,11.4,25.4,25.4,25.4h457.2c14,0,25.4-11.4,25.4-25.4   C510,470.6,498.6,459.2,484.6,459.2z"/></g><text x="0" y="527" fill="#000000" font-size="5px" font-weight="bold" font-family="'Helvetica Neue', Helvetica, Arial-Unicode, Arial, Sans-serif">Created by ProSymbols</text><text x="0" y="532" fill="#000000" font-size="5px" font-weight="bold" font-family="'Helvetica Neue', Helvetica, Arial-Unicode, Arial, Sans-serif">from the Noun Project</text></svg>