<svg xmlns="http://www.w3.org/2000/svg" xmlns:xlink="http://www.w3.org/1999/xlink" version="1.1" x="0px" y="0px" viewBox="0 0 512 640" enable-background="new 0 0 512 512" xml:space="preserve"><g><path d="M129,103.6h-25.4V12.2C103.6,6.5,99.1,2,93.4,2H63c-5.6,0-10.2,4.5-10.2,10.2v91.4H27.4C13.4,103.6,2,115,2,129   c0,14,11.4,25.4,25.4,25.4h25.4v345.4c0,5.6,4.5,10.2,10.2,10.2h30.5c5.6,0,10.2-4.5,10.2-10.2V154.4H129c14,0,25.4-11.4,25.4-25.4   C154.4,115,143,103.6,129,103.6z"/><path d="M306.8,357.6h-25.4V12.2c0-5.6-4.5-10.2-10.2-10.2h-30.5c-5.6,0-10.2,4.5-10.2,10.2v345.4h-25.4c-14,0-25.4,11.4-25.4,25.4   c0,14,11.4,25.4,25.4,25.4h25.4v91.4c0,5.6,4.5,10.2,10.2,10.2h30.5c5.6,0,10.2-4.5,10.2-10.2v-91.4h25.4c14,0,25.4-11.4,25.4-25.4   C332.2,369,320.8,357.6,306.8,357.6z"/><path d="M484.6,230.6h-25.4V12.2C459.2,6.5,454.7,2,449,2h-30.5c-5.6,0-10.2,4.5-10.2,10.2v218.4H383c-14,0-25.4,11.4-25.4,25.4   c0,14,11.4,25.4,25.4,25.4h25.4v218.4c0,5.6,4.5,10.2,10.2,10.2H449c5.6,0,10.2-4.5,10.2-10.2V281.4h25.4c14,0,25.4-11.4,25.4-25.4   C510,242,498.6,230.6,484.6,230.6z"/></g><text x="0" y="527" fill="#000000" font-size="5px" font-weight="bold" font-family="'Helvetica Neue', Helvetica, Arial-Unicode, Arial, Sans-serif">Created by ProSymbols</text><text x="0" y="532" fill="#000000" font-size="5px" font-weight="bold" font-family="'Helvetica Neue', Helvetica, Arial-Unicode, Arial, Sans-serif">from the Noun Project</text></svg>