<svg xmlns="http://www.w3.org/2000/svg" xmlns:xlink="http://www.w3.org/1999/xlink" version="1.1" x="0px" y="0px" viewBox="0 0 512 640" enable-background="new 0 0 512 512" xml:space="preserve"><g><path d="M433.8,230.6c-14,0-25.4-11.4-25.4-25.4v-127c0-42-34.2-76.2-76.2-76.2c-14,0-25.4,11.4-25.4,25.4   c0,14,11.4,25.4,25.4,25.4c14,0,25.4,11.4,25.4,25.4v127c0,19.6,7.6,37.3,19.8,50.8c-12.2,13.5-19.8,31.2-19.8,50.8v127   c0,14-11.4,25.4-25.4,25.4c-14,0-25.4,11.4-25.4,25.4c0,14,11.4,25.4,25.4,25.4c42,0,76.2-34.2,76.2-76.2v-127   c0-14,11.4-25.4,25.4-25.4c14,0,25.4-11.4,25.4-25.4C459.2,242,447.8,230.6,433.8,230.6z"/><path d="M154.4,78.2c0-14,11.4-25.4,25.4-25.4c14,0,25.4-11.4,25.4-25.4c0-14-11.4-25.4-25.4-25.4c-42,0-76.2,34.2-76.2,76.2v127   c0,14-11.4,25.4-25.4,25.4c-14,0-25.4,11.4-25.4,25.4c0,14,11.4,25.4,25.4,25.4c14,0,25.4,11.4,25.4,25.4v127   c0,42,34.2,76.2,76.2,76.2c14,0,25.4-11.4,25.4-25.4c0-14-11.4-25.4-25.4-25.4c-14,0-25.4-11.4-25.4-25.4v-127   c0-19.6-7.6-37.3-19.8-50.8c12.2-13.5,19.8-31.2,19.8-50.8V78.2z"/></g><text x="0" y="527" fill="#000000" font-size="5px" font-weight="bold" font-family="'Helvetica Neue', Helvetica, Arial-Unicode, Arial, Sans-serif">Created by ProSymbols</text><text x="0" y="532" fill="#000000" font-size="5px" font-weight="bold" font-family="'Helvetica Neue', Helvetica, Arial-Unicode, Arial, Sans-serif">from the Noun Project</text></svg>