<?xml version="1.0" encoding="utf-8"?>
<!DOCTYPE svg PUBLIC "-//W3C//DTD SVG 1.1//EN" "http://www.w3.org/Graphics/SVG/1.1/DTD/svg11.dtd">
<svg version="1.1" xmlns="http://www.w3.org/2000/svg" xmlns:xlink="http://www.w3.org/1999/xlink" x="0px" y="0px"
	 width="612px" height="181px" viewBox="0 0 612 181" enable-background="new 0 0 612 181" xml:space="preserve">
	<g>
		<path fill="#7a2235" stroke="#7a2235" stroke-width="2" stroke-miterlimit="10" d="M134.506,64.044c0,14.516-3.63,29.031-10.886,43.545
			c-6.78,13.638-15.832,25.642-27.156,36.008c-12.522,11.405-26.12,19.46-40.793,24.165c-4.467,1.436-12.522,2.593-24.165,3.469
			c-1.038,0.081-2.075,0.916-3.11,2.513c-0.4,0.638-0.998,1.595-1.794,2.871c-1.675,1.992-3.909,2.991-6.699,2.991
			c-3.11,0-5.383-2.474-6.819-7.418c-0.957-3.428-1.835-5.701-2.632-6.818c-0.798-1.115-2.572-2.471-5.324-4.067
			C2.376,159.708,1,157.396,1,154.364c0-2.711,0.837-4.585,2.512-5.623c1.753-0.397,4.307-1.154,7.656-2.272
			c0.239-0.876,0.598-2.153,1.077-3.828l2.512-83.022c0.318-10.606-0.479-17.983-2.393-22.131c-1.118-2.471-2.991-4.465-5.623-5.981
			c-3.032-1.753-4.546-4.666-4.546-8.733c0-2.312,0.777-4.366,2.333-6.161c1.555-1.794,3.488-2.691,5.802-2.691
			c7.417,0,12.64,7.817,15.671,23.447c5.024-9.968,12.042-18.382,21.055-25.242C57.025,4.708,67.194,1,77.562,1
			c5.742,0,12.042,1.316,18.901,3.948c12.202,4.707,21.851,13.359,28.95,25.959C131.474,41.674,134.506,52.721,134.506,64.044z
			 M122.304,68.471c0-18.582-6.66-33.535-19.978-44.861c-7.338-6.221-15.991-9.331-25.959-9.331
			c-14.915,0-26.838,7.139-35.769,21.414c-6.938,11.167-11.167,24.763-12.681,40.793c-0.32,2.314-0.679,6.381-1.077,12.202
			c-0.639,16.27-0.639,36.409,0,60.413c0.079,3.35,0.658,5.503,1.734,6.46c1.077,0.957,3.369,1.436,6.879,1.436
			c19.458,0,38.56-9.051,57.302-27.155c13.638-13.16,22.33-27.276,26.079-42.349C121.146,78.161,122.304,71.82,122.304,68.471z"/>
		<path fill="#7a2235" stroke="#7a2235" stroke-width="2" stroke-miterlimit="10" d="M190.564,144.076c0,3.589-2.075,7.856-6.221,12.8
			c-3.669,4.468-7.378,7.656-11.125,9.57c-6.46,3.35-12.561,5.025-18.303,5.025c-9.172,0-16.311-3.982-21.414-11.948
			c-4.067-6.37-6.101-13.658-6.101-21.862c0-16.088,3.589-29.27,10.767-39.545c8.213-11.787,15.671-17.683,22.371-17.683
			c9.57,0,14.355,5.049,14.355,15.146c0,8.985-3.311,19.064-9.929,30.234c-6.621,11.171-13.877,19.062-21.772,23.674
			c-0.32,3.021,1.196,5.367,4.546,7.035c2.551,1.273,5.223,1.909,8.015,1.909c11.963,0,21.055-5.309,27.275-15.926
			c0.876-1.425,2.273-2.138,4.187-2.138C189.446,140.368,190.564,141.604,190.564,144.076z M163.169,101.47
			c0-4.613-1.555-6.92-4.666-6.92c-3.589,0-7.417,2.824-11.484,8.471c-6.301,8.591-9.451,18.614-9.451,30.068
			c0,3.818,0.479,6.326,1.436,7.518c7.896-3.658,14.395-10.896,19.5-21.716C161.614,112.288,163.169,106.483,163.169,101.47z"/>
		<path fill="#7a2235" stroke="#7a2235" stroke-width="2" stroke-miterlimit="10" d="M235.917,145.87c0,2.554-1.835,6.302-5.503,11.246
			c-7.099,9.57-14.995,14.355-23.687,14.355c-5.823,0-10.608-1.395-14.355-4.188c-9.651-7.256-14.475-24.842-14.475-52.756
			c0-11.085,0.996-22.61,2.991-34.573c4.944-29.507,13.557-44.263,25.84-44.263c10.288,0,15.432,8.574,15.432,25.72
			c0,8.613-0.559,15.712-1.675,21.294c-2.632,13-6.262,25.361-10.886,37.085c-0.798,2.074-3.708,7.577-8.733,16.508l-4.546,6.461
			c-2.075,2.951-3.11,5.225-3.11,6.818c0,6.143,4.385,9.211,13.159,9.211c5.024,0,9.41-1.436,13.159-4.307
			c1.753-1.354,4.226-4.066,7.417-8.135c2.312-2.949,4.226-4.426,5.742-4.426C234.841,141.923,235.917,143.239,235.917,145.87z
			 M212.949,64.641c0-10.206-2.194-15.311-6.58-15.311c-3.51,0-6.938,3.03-10.288,9.09c-3.11,5.664-5.583,14.475-7.417,26.436
			c-1.596,10.049-2.393,19.298-2.393,27.75c0,9.172,0.753,17.785,2.26,25.838c3.983-5.266,6.215-8.297,6.694-9.096
			c4.151-7.176,8.103-17.382,11.856-30.619C210.992,85.013,212.949,73.65,212.949,64.641z"/>
		<path fill="#7a2235" stroke="#7a2235" stroke-width="2" stroke-miterlimit="10" d="M276.3,148.263c0,1.597-0.759,3.909-2.273,6.939
			c-5.742,11.325-13.12,16.986-22.131,16.986c-7.578,0-13.24-4.187-16.987-12.561c-2.792-6.299-4.187-13.836-4.187-22.609
			c0-14.993,1.116-27.115,3.35-36.368c0.637-2.791,2.632-4.187,5.981-4.187c4.307,0,6.46,2.273,6.46,6.819
			c0-5.582-0.738-2.172-2.213,10.228c-1.477,12.402-2.213,20.756-2.213,25.062c0,13.719,3.428,20.576,10.288,20.576
			c6.539,0,12.122-4.188,16.748-12.561c0.796-1.436,2.073-2.154,3.828-2.154C275.182,144.435,276.3,145.712,276.3,148.263z
			 M258.236,69.667c0,7.896-3.63,11.843-10.886,11.843c-6.46,0-9.69-3.428-9.69-10.288c0-3.269,0.996-6,2.991-8.195
			c1.993-2.192,4.625-3.29,7.896-3.29C255.006,59.738,258.236,63.048,258.236,69.667z"/>
		<path fill="#7a2235" stroke="#7a2235" stroke-width="2" stroke-miterlimit="10" d="M342.915,141.923c0,2.713-1.875,6.58-5.623,11.604
			c-8.535,11.565-19.102,17.347-31.701,17.347c-10.688,0-19.5-3.708-26.438-11.126c-6.938-7.416-10.408-16.508-10.408-27.275
			c0-10.925,3.35-21.971,10.049-33.137c7.417-12.361,15.911-18.542,25.481-18.542c10.845,0,16.269,7.697,16.269,23.088
			c0,8.933-2.752,13.398-8.254,13.398c-4.707,0-7.058-2.751-7.058-8.254c0-7.656,0.12-11.683,0.359-12.083
			c0,0.081,0.039,0.239,0.12,0.479c-0.479-2.871-2.114-4.307-4.905-4.307c-5.903,0-11.167,4.507-15.791,13.518
			c-4.228,8.215-6.34,16.191-6.34,23.925c0,8.296,2.393,15.273,7.178,20.936c5.024,5.981,11.604,8.973,19.739,8.973
			c5.9,0,11.682-2.073,17.346-6.221c5.184-3.668,9.332-8.294,12.441-13.877c0.957-1.676,2.232-2.513,3.828-2.513
			C341.676,137.855,342.915,139.212,342.915,141.923z"/>
		<path fill="#7a2235" stroke="#7a2235" stroke-width="2" stroke-miterlimit="10" d="M382.396,148.263c0,1.597-0.759,3.909-2.273,6.939
			c-5.742,11.325-13.119,16.986-22.131,16.986c-7.578,0-13.239-4.187-16.987-12.561c-2.793-6.299-4.187-13.836-4.187-22.609
			c0-14.993,1.115-27.115,3.35-36.368c0.637-2.791,2.631-4.187,5.98-4.187c4.307,0,6.461,2.273,6.461,6.819
			c0-5.582-0.739-2.172-2.214,10.228c-1.477,12.402-2.213,20.756-2.213,25.062c0,13.719,3.428,20.576,10.288,20.576
			c6.538,0,12.122-4.188,16.748-12.561c0.796-1.436,2.073-2.154,3.828-2.154C381.278,144.435,382.396,145.712,382.396,148.263z
			 M364.332,69.667c0,7.896-3.63,11.843-10.886,11.843c-6.46,0-9.69-3.428-9.69-10.288c0-3.269,0.997-6,2.991-8.195
			c1.992-2.192,4.624-3.29,7.896-3.29C361.102,59.738,364.332,63.048,364.332,69.667z"/>
		<path fill="#7a2235" stroke="#7a2235" stroke-width="2" stroke-miterlimit="10" d="M439.595,120.15c0,1.436-0.658,3.19-1.974,5.264
			c-1.316,2.075-1.974,4.028-1.974,5.862c-0.161,8.534-2.913,17.147-8.255,25.84c-6.221,10.049-13.679,15.072-22.37,15.072
			c-9.253,0-16.868-5.183-22.85-15.551c-5.104-8.854-7.656-18.343-7.656-28.473c0-9.25,1.753-18.542,5.264-27.873
			c5.024-13.398,12.241-20.098,21.652-20.098c2.393,0,4.466,0.639,6.221,1.914c1.436-0.557,3.629-0.837,6.58-0.837
			c10.049,0,17.107,10.209,21.174,30.625l0.24,1.197c0.078,0.238,0.837,1.156,2.272,2.751
			C439.037,117.12,439.595,118.556,439.595,120.15z M425.121,136.181v-2.752h-5.742c-6.461,0.161-11.805-2.59-16.031-8.254
			c-3.828-5.104-5.742-10.965-5.742-17.585c0-3.269,0.519-7.815,1.556-13.638c-4.229,1.839-7.578,6.751-10.049,14.741
			c-1.914,6.314-2.871,12.465-2.871,18.456c0,7.991,1.196,14.862,3.589,20.616c3.188,7.749,8.135,11.624,14.834,11.624
			c5.184,0,9.93-2.591,14.236-7.776C423.045,146.669,425.121,141.524,425.121,136.181z M425.958,119.313
			c0-4.146-0.957-8.854-2.871-14.117c-2.712-7.496-6.421-11.245-11.126-11.245c-3.908,0-5.861,3.23-5.861,9.69
			c0,13.479,4.983,20.217,14.953,20.217C424.322,123.858,425.958,122.345,425.958,119.313z"/>
		<path fill="#7a2235" stroke="#7a2235" stroke-width="2" stroke-miterlimit="10" d="M530.584,143.119c0,1.436-0.64,3.431-1.914,5.981
			c-5.981,11.885-13.278,17.824-21.892,17.824c-7.418,0-13.24-4.863-17.467-14.594c-0.399-0.877-1.156-2.592-2.272-5.145
			c-5.583,10.129-8.733,15.713-9.45,16.748c-4.388,6.143-9.253,9.211-14.596,9.211c-13.559,0-20.336-12.561-20.336-37.683
			c0-5.742,1.154-18.343,3.469-37.803c0.479-4.067,2.752-6.101,6.818-6.101c3.668,0,5.504,2.273,5.504,6.819
			c0-1.355-0.521,1.835-1.556,9.57c-1.994,14.834-2.991,24.764-2.991,29.787c0,14.355,3.39,21.533,10.169,21.533
			c5.184,0,10.208-5.103,15.073-15.312c3.828-8.054,6.021-14.912,6.58-20.576c-0.32-12.6,0.158-21.811,1.436-27.634
			c0.957-4.385,3.469-6.58,7.536-6.58c3.509,0,5.264,1.555,5.264,4.666c0,3.669-0.52,9.232-1.556,16.688
			c-1.037,7.458-1.555,13.1-1.555,16.928c0,7.895,0.239,13.278,0.718,16.149c1.274,6.699,4.266,10.049,8.972,10.049
			c3.828,0,8.094-2.352,12.801-7.058c4.705-4.705,7.217-7.059,7.537-7.059C529.347,139.53,530.584,140.727,530.584,143.119z"/>
		<path fill="#7a2235" stroke="#7a2235" stroke-width="2" stroke-miterlimit="10" d="M577.348,142.521c0,5.504-1.956,10.729-5.862,15.672
			c-3.589,4.546-8.075,7.977-13.458,10.288c-5.384,2.313-10.629,3.47-15.731,3.47c-4.387,0-8.135-1.275-11.245-3.828
			c-3.35-2.711-5.024-6.221-5.024-10.527c0.078-0.797,0.438-2.95,1.077-6.461c-1.357,0.343-2.513,0.543-3.47,0.599
			c-2.314,0-3.47-1.47-3.47-4.411c0-0.396,2.393-4.531,7.178-12.402c5.184-8.505,9.969-17.41,14.355-26.711
			c2.073-4.452,3.987-9.103,5.742-13.952c0.318-3.099,0.677-6.239,1.077-9.421c1.196-5.167,3.628-7.751,7.298-7.751
			c4.146,0,6.221,2.034,6.221,6.101c0,1.357-1.157,5.305-3.47,11.843c0,1.835,0.957,4.785,2.871,8.853
			c2.231,4.387,5.622,11.047,10.169,19.978C575.434,131.437,577.348,137.657,577.348,142.521z M565.145,141.684
			c0-5.581-2.792-14.075-8.373-25.481c-1.118-2.312-2.593-5.023-4.427-8.134l-18.901,35.65c7.178-2.711,12.681-4.068,16.509-4.068
			c5.342,0,8.015,1.955,8.015,5.862c0,1.597-0.639,3.032-1.914,4.307c-1.276,1.276-2.712,1.914-4.307,1.914
			c-1.596,0-3.031-0.916-4.307-2.751c-5.98,0-8.972,2.074-8.972,6.221c0,4.066,2.83,6.101,8.493,6.101
			c5.264,0,9.61-1.933,13.04-5.802C563.429,151.634,565.145,147.028,565.145,141.684z"/>
		<path fill="#7a2235" stroke="#7a2235" stroke-width="2" stroke-miterlimit="10" d="M610.946,159.628c0,2.793-1.077,5.344-3.229,7.656
			c-2.154,2.314-4.627,3.469-7.418,3.469c-2.631,0-4.945-0.957-6.938-2.871c-1.995-1.914-2.991-4.187-2.991-6.818
			c0-2.871,1.096-5.402,3.29-7.597c2.192-2.192,4.725-3.29,7.596-3.29c2.472,0,4.705,0.957,6.699,2.871
			C609.948,154.962,610.946,157.157,610.946,159.628z"/>
	</g>
</svg>
