<?xml version="1.0" encoding="utf-8"?>
<!DOCTYPE svg PUBLIC "-//W3C//DTD SVG 1.1//EN" "http://www.w3.org/Graphics/SVG/1.1/DTD/svg11.dtd">
<svg version="1.1" xmlns="http://www.w3.org/2000/svg" xmlns:xlink="http://www.w3.org/1999/xlink" x="0px" y="0px"
	 width="595.312px" height="476.25px" viewBox="0 0 595.312 476.25" enable-background="new 0 0 595.312 476.25"
	 xml:space="preserve">
<style>
    path {
        fill: #ffffff;
    }
</style>
<g>
	<path d="M142.875,333.375c13.125,0,23.812,10.688,23.812,23.812v71.438h261.938v-381H166.688v71.438
		c0,13.125-10.688,23.812-23.812,23.812s-23.812-10.688-23.812-23.812v-95.25C119.062,10.688,129.75,0,142.875,0h309.562
		c13.125,0,23.812,10.688,23.812,23.812v428.625c0,13.125-10.688,23.812-23.812,23.812H142.875
		c-13.125,0-23.812-10.688-23.812-23.812v-95.25C119.062,344.062,129.75,333.375,142.875,333.375z"/>
	<path d="M9.562,190.5h204.749v-34.219c0-11.907,14.438-17.907,22.969-9.469l68.345,81.562c5.25,5.25,5.25,13.688,0,18.938
		l-68.344,82.031c-8.438,8.438-22.969,2.438-22.969-9.469v-34.219H9.562c-5.25,0-9.562-4.219-9.562-9.562v-76.219
		C0,194.719,4.219,190.5,9.562,190.5z"/>
</g>
</svg>
