<?xml version="1.0" encoding="utf-8"?>
<!DOCTYPE svg PUBLIC "-//W3C//DTD SVG 1.1//EN" "http://www.w3.org/Graphics/SVG/1.1/DTD/svg11.dtd">
<svg version="1.1" xmlns="http://www.w3.org/2000/svg" xmlns:xlink="http://www.w3.org/1999/xlink" x="0px" y="0px"
	 width="595.312px" height="476.25px" viewBox="0 0 595.312 476.25" enable-background="new 0 0 595.312 476.25"
	 xml:space="preserve">
<style>
    path {
        fill: #ffffff;
    }
</style>
<g>
	<path d="M476.249,357.188v95.25c0,13.123-10.688,23.812-23.812,23.812H142.875c-13.123,0-23.812-10.688-23.812-23.812V23.812
		C119.063,10.688,129.75,0,142.875,0h309.562c13.125,0,23.812,10.688,23.811,23.813v95.25c0,13.125-10.688,23.812-23.811,23.812
		c-13.125,0-23.812-10.688-23.812-23.812V47.625H166.687v381h261.937v-71.438c0-13.125,10.688-23.812,23.812-23.812
		S476.249,344.062,476.249,357.188z"/>
	<path d="M295.312,190.5h204.75v-34.219c0-11.907,14.438-17.907,22.969-9.469l68.344,81.562c5.25,5.25,5.25,13.688,0,18.938
		l-68.344,82.031c-8.438,8.438-22.969,2.438-22.969-9.469v-34.219h-204.75c-5.25,0-9.562-4.219-9.562-9.562v-76.218
		C285.749,194.719,289.968,190.5,295.312,190.5z"/>
</g>
</svg>
