<?xml version="1.0" encoding="utf-8"?>
<!DOCTYPE svg PUBLIC "-//W3C//DTD SVG 1.1//EN" "http://www.w3.org/Graphics/SVG/1.1/DTD/svg11.dtd">
<svg version="1.1" xmlns="http://www.w3.org/2000/svg" xmlns:xlink="http://www.w3.org/1999/xlink" x="0px" y="0px"
	 width="476.344px" height="476.344px" viewBox="0 0 476.344 476.344" enable-background="new 0 0 476.344 476.344"
	 xml:space="preserve">
<style>
    path {
        fill: #ffffff;
    }
</style>
<path d="M428.625,47.625H381V23.812C381,10.688,370.312,0,357.188,0H23.812C10.688,0,0,10.688,0,23.812v95.25
	c0,13.125,10.688,23.812,23.812,23.812h333.375c13.125,0,23.812-10.688,23.812-23.812V95.25h47.625v77.062l-244.406,66.656
	c-10.406,2.812-17.531,12.188-17.531,22.969v47.625h-14.25c-5.25,0-9.562,4.219-9.562,9.562v147.656c0,5.25,4.219,9.562,9.562,9.562
	h76.219c5.25,0,9.562-4.219,9.562-9.562V319.125c0-5.25-4.219-9.562-9.562-9.562h-14.25v-29.438l226.875-61.875
	c20.625-5.625,35.062-24.562,35.062-45.938V95.25C476.25,69,454.875,47.625,428.625,47.625z"/>
</svg>
