<?xml version="1.0" encoding="utf-8"?>
<!DOCTYPE svg PUBLIC "-//W3C//DTD SVG 1.1//EN" "http://www.w3.org/Graphics/SVG/1.1/DTD/svg11.dtd">
<svg version="1.1" id="Layer_1" xmlns="http://www.w3.org/2000/svg" xmlns:xlink="http://www.w3.org/1999/xlink" x="0px" y="0px"
	 width="475.875px" height="475.875px" viewBox="0 0 475.875 475.875" enable-background="new 0 0 475.875 475.875"
	 xml:space="preserve">
<path d="M475.875,452.062V23.812C475.875,10.688,465.188,0,452.062,0H23.812C10.688,0,0,10.688,0,23.812v428.25
	c0,13.125,10.688,23.812,23.812,23.812h428.25C465.188,475.875,475.875,465.188,475.875,452.062z M291.562,236.062l-29.812-17.438
	v138.281c0,13.125-10.688,23.812-23.812,23.812s-23.812-10.688-23.812-23.812V218.625l-29.812,17.438
	c-9.469,5.531-21.281-3.094-16.781-12.281l59.906-122.719c3.938-8.062,16.969-8.062,21,0l59.906,122.719
	C312.844,232.969,300.938,241.594,291.562,236.062z"/>
</svg>
