<?xml version="1.0" encoding="utf-8"?>
<!DOCTYPE svg PUBLIC "-//W3C//DTD SVG 1.1//EN" "http://www.w3.org/Graphics/SVG/1.1/DTD/svg11.dtd">
<svg version="1.1" id="Layer_1" xmlns="http://www.w3.org/2000/svg" xmlns:xlink="http://www.w3.org/1999/xlink" x="0px" y="0px"
	 width="599.76px" height="556.92px" viewBox="6.12 117.54 599.76 556.92" enable-background="new 6.12 117.54 599.76 556.92"
	 xml:space="preserve">
<g>
	<path fill="#FFFFFF" d="M220.32,288.9h118.544v60.771h1.714c16.523-29.56,56.854-60.771,117.015-60.771
		c125.153,0,148.287,77.908,148.287,179.194V674.46H482.317V491.533c0-43.636-0.918-99.756-64.26-99.756
		c-64.383,0-74.175,47.491-74.175,96.573V674.46H220.32V288.9z"/>
	<path fill="#FFFFFF" d="M6.12,288.9h128.52v385.56H6.12V288.9z"/>
	<path fill="#FFFFFF" d="M134.64,181.8c0,35.496-28.764,64.26-64.26,64.26S6.12,217.296,6.12,181.8
		c0-35.496,28.764-64.26,64.26-64.26S134.64,146.304,134.64,181.8z"/>
</g>
</svg>
